<svg width="13" height="11" viewBox="0 0 13 11" fill="none" xmlns="http://www.w3.org/2000/svg">
<path d="M11.75 0H0.75C0.551088 0 0.360322 0.0790175 0.21967 0.21967C0.0790177 0.360322 0 0.551088 0 0.75V9.75C0 9.94891 0.0790177 10.1397 0.21967 10.2803C0.360322 10.421 0.551088 10.5 0.75 10.5H4.75C4.80246 10.4999 4.85356 10.4833 4.89607 10.4526C4.93858 10.4219 4.97035 10.3785 4.98688 10.3287L5.95062 7.4375L8.34313 6.48063C8.37441 6.46805 8.40284 6.44928 8.42668 6.42543C8.45053 6.40159 8.4693 6.37316 8.48188 6.34188L9.4375 3.95062L12.3275 2.98688C12.3775 2.97057 12.4211 2.93889 12.4521 2.89636C12.4831 2.85383 12.4998 2.80261 12.5 2.75V0.75C12.5 0.551088 12.421 0.360322 12.2803 0.21967C12.1397 0.0790175 11.9489 0 11.75 0ZM5.65688 7.01812C5.62324 7.03169 5.59296 7.05242 5.56814 7.07886C5.54332 7.1053 5.52454 7.13683 5.51312 7.17125L4.57 10H0.75C0.683696 10 0.620107 9.97366 0.573223 9.92678C0.526339 9.87989 0.5 9.8163 0.5 9.75V7.89625L3.82312 4.57312C3.84634 4.54988 3.87392 4.53144 3.90426 4.51886C3.93461 4.50628 3.96715 4.4998 4 4.4998C4.03285 4.4998 4.06539 4.50628 4.09574 4.51886C4.12608 4.53144 4.15366 4.54988 4.17688 4.57312L6.34625 6.7425L5.65688 7.01812ZM12 2.57L9.17125 3.51312C9.13683 3.52454 9.1053 3.54332 9.07886 3.56814C9.05242 3.59296 9.03169 3.62324 9.01812 3.65688L8.0575 6.0575L6.85125 6.54062L4.53062 4.21938C4.46095 4.14946 4.37815 4.09398 4.28699 4.05612C4.19582 4.01827 4.09809 3.99878 3.99937 3.99878C3.90066 3.99878 3.80292 4.01827 3.71176 4.05612C3.6206 4.09398 3.5378 4.14946 3.46812 4.21938L0.5 7.1875V0.75C0.5 0.683696 0.526339 0.620107 0.573223 0.573223C0.620107 0.526339 0.683696 0.5 0.75 0.5H11.75C11.8163 0.5 11.8799 0.526339 11.9268 0.573223C11.9737 0.620107 12 0.683696 12 0.75V2.57ZM12.3962 4.65562C12.3641 4.6325 12.327 4.61732 12.2879 4.61135C12.2488 4.60537 12.2088 4.60876 12.1713 4.62125L10.6831 5.11688C10.6488 5.12844 10.6173 5.14734 10.591 5.17227C10.5646 5.1972 10.5441 5.22756 10.5306 5.26125L9.59313 7.59625L7.25813 8.53375C7.22444 8.54718 7.19408 8.56777 7.16915 8.59411C7.14422 8.62044 7.12532 8.65188 7.11375 8.68625L6.61812 10.1744C6.60564 10.2119 6.60225 10.2519 6.60822 10.291C6.6142 10.3301 6.62937 10.3673 6.6525 10.3994C6.67564 10.4315 6.70606 10.4576 6.74126 10.4756C6.77647 10.4937 6.81545 10.5031 6.855 10.5031H11.75C11.9489 10.5031 12.1397 10.4241 12.2803 10.2835C12.421 10.1428 12.5 9.95204 12.5 9.75313V4.85813C12.5 4.81857 12.4905 4.77959 12.4725 4.74439C12.4545 4.70919 12.4283 4.67876 12.3962 4.65562ZM12 9.75C12 9.8163 11.9737 9.87989 11.9268 9.92678C11.8799 9.97366 11.8163 10 11.75 10H7.205L7.55437 8.95125L9.88125 8.02063C9.91271 8.00805 9.94129 7.98921 9.96525 7.96525C9.98921 7.94129 10.0081 7.91271 10.0206 7.88125L10.9513 5.55437L12 5.205V9.75Z" fill="black"/>
</svg>